<svg version="1.1" xmlns="http://www.w3.org/2000/svg" xmlns:xlink="http://www.w3.org/1999/xlink" width="1404.2353515625" height="818"><defs/><g><g transform="translate(-574,-598) scale(1,1)"><rect fill="#C0C0C0" stroke="none" x="815" y="1119" width="489.1494140625" height="280" opacity="0.2"/></g><g transform="translate(-574,-598) scale(1,1)"><rect fill="#ffffff" stroke="none" x="808" y="1112" width="489.1494140625" height="280"/></g><g transform="translate(-574,-598) scale(1,1)"><path fill="none" stroke="#000000" d="M 808 1112 L 1297.1494140625 1112 L 1297.1494140625 1392 L 808 1392 L 808 1112 Z Z" stroke-miterlimit="10"/></g><g transform="translate(-574,-598) scale(1,1)"><path fill="none" stroke="#000000" d="M 808 1137 L 1297.1494140625 1137" stroke-miterlimit="10"/></g><g transform="translate(-574,-598) scale(1,1)"><path fill="none" stroke="#000000" d="M 808 1220 L 1297.1494140625 1220" stroke-miterlimit="10"/></g><g transform="translate(-574,-598) scale(1,1)"><g><path fill="none" stroke="none"/><text fill="#000000" stroke="none" font-family="Arial" font-size="13px" font-style="normal" font-weight="bold" text-decoration="none" x="1009.9501953125" y="1131.5">GestUtilisateur</text></g></g><g transform="translate(-574,-598) scale(1,1)"><g><path fill="none" stroke="none"/><text fill="#000000" stroke="none" font-family="Arial" font-size="13px" font-style="normal" font-weight="normal" text-decoration="none" x="813" y="1154.5">-settings: ConnectionSetting</text></g></g><g transform="translate(-574,-598) scale(1,1)"><g><path fill="none" stroke="none"/><text fill="#000000" stroke="none" font-family="Arial" font-size="13px" font-style="normal" font-weight="normal" text-decoration="none" x="813" y="1169.5">-Conn: MySqlConnection</text></g></g><g transform="translate(-574,-598) scale(1,1)"><g><path fill="none" stroke="none"/><text fill="#000000" stroke="none" font-family="Arial" font-size="13px" font-style="normal" font-weight="normal" text-decoration="none" x="813" y="1184.5">-cmd: MySqlCommand</text></g></g><g transform="translate(-574,-598) scale(1,1)"><g><path fill="none" stroke="none"/><text fill="#000000" stroke="none" font-family="Arial" font-size="13px" font-style="normal" font-weight="normal" text-decoration="none" x="813" y="1199.5">-Collecte: MySqlDataReader</text></g></g><g transform="translate(-574,-598) scale(1,1)"><g><path fill="none" stroke="none"/><text fill="#000000" stroke="none" font-family="Arial" font-size="13px" font-style="normal" font-weight="normal" text-decoration="none" x="813" y="1214.5">-ActiveSession: Session</text></g></g><g transform="translate(-574,-598) scale(1,1)"><g><path fill="none" stroke="none"/><text fill="#000000" stroke="none" font-family="Arial" font-size="13px" font-style="normal" font-weight="normal" text-decoration="none" x="813" y="1237.5">+GestUtilisateur(userActive)</text></g></g><g transform="translate(-574,-598) scale(1,1)"><g><path fill="none" stroke="none"/><text fill="#000000" stroke="none" font-family="Arial" font-size="13px" font-style="normal" font-weight="normal" text-decoration="none" x="813" y="1252.5">+FetchUsers()</text></g></g><g transform="translate(-574,-598) scale(1,1)"><g><path fill="none" stroke="none"/><text fill="#000000" stroke="none" font-family="Arial" font-size="13px" font-style="normal" font-weight="normal" text-decoration="none" x="813" y="1267.5">+QuickSearchUser(param)</text></g></g><g transform="translate(-574,-598) scale(1,1)"><g><path fill="none" stroke="none"/><text fill="#000000" stroke="none" font-family="Arial" font-size="13px" font-style="normal" font-weight="normal" text-decoration="none" x="813" y="1282.5">+NextIdUser()</text></g></g><g transform="translate(-574,-598) scale(1,1)"><g><path fill="none" stroke="none"/><text fill="#000000" stroke="none" font-family="Arial" font-size="13px" font-style="normal" font-weight="normal" text-decoration="none" x="813" y="1297.5">+AddUser(pwd, prenom, nom, mail, fonction, gest_cons, gest_user, gest_statut)</text></g></g><g transform="translate(-574,-598) scale(1,1)"><g><path fill="none" stroke="none"/><text fill="#000000" stroke="none" font-family="Arial" font-size="13px" font-style="normal" font-weight="normal" text-decoration="none" x="813" y="1312.5">+ReqUser(req, conn)</text></g></g><g transform="translate(-574,-598) scale(1,1)"><g><path fill="none" stroke="none"/><text fill="#000000" stroke="none" font-family="Arial" font-size="13px" font-style="normal" font-weight="normal" text-decoration="none" x="813" y="1327.5">+SelectUser(id)</text></g></g><g transform="translate(-574,-598) scale(1,1)"><g><path fill="none" stroke="none"/><text fill="#000000" stroke="none" font-family="Arial" font-size="13px" font-style="normal" font-weight="normal" text-decoration="none" x="813" y="1342.5">+NextAccessId()</text></g></g><g transform="translate(-574,-598) scale(1,1)"><g><path fill="none" stroke="none"/><text fill="#000000" stroke="none" font-family="Arial" font-size="13px" font-style="normal" font-weight="normal" text-decoration="none" x="813" y="1357.5">+DeleteUser(id, fk_access)</text></g></g><g transform="translate(-574,-598) scale(1,1)"><g><path fill="none" stroke="none"/><text fill="#000000" stroke="none" font-family="Arial" font-size="13px" font-style="normal" font-weight="normal" text-decoration="none" x="813" y="1372.5">+UpdateU(identifiant, fk_acces, pwd, prenom, nom, mail, fonction, con, user, statut)</text></g></g><g transform="translate(-574,-598) scale(1,1)"><g><path fill="none" stroke="none"/><text fill="#000000" stroke="none" font-family="Arial" font-size="13px" font-style="normal" font-weight="normal" text-decoration="none" x="813" y="1387.5">+getUserInfo(id)</text></g></g><g transform="translate(-574,-598) scale(1,1)"><rect fill="#C0C0C0" stroke="none" x="863" y="775" width="358.375" height="325" opacity="0.2"/></g><g transform="translate(-574,-598) scale(1,1)"><rect fill="#ffffff" stroke="none" x="856" y="768" width="358.375" height="325"/></g><g transform="translate(-574,-598) scale(1,1)"><path fill="none" stroke="#000000" d="M 856 768 L 1214.375 768 L 1214.375 1093 L 856 1093 L 856 768 Z Z" stroke-miterlimit="10"/></g><g transform="translate(-574,-598) scale(1,1)"><path fill="none" stroke="#000000" d="M 856 793 L 1214.375 793" stroke-miterlimit="10"/></g><g transform="translate(-574,-598) scale(1,1)"><path fill="none" stroke="#000000" d="M 856 906 L 1214.375 906" stroke-miterlimit="10"/></g><g transform="translate(-574,-598) scale(1,1)"><g><path fill="none" stroke="none"/><text fill="#000000" stroke="none" font-family="Arial" font-size="13px" font-style="normal" font-weight="bold" text-decoration="none" x="986.770751953125" y="787.5">GestEquipement</text></g></g><g transform="translate(-574,-598) scale(1,1)"><g><path fill="none" stroke="none"/><text fill="#000000" stroke="none" font-family="Arial" font-size="13px" font-style="normal" font-weight="normal" text-decoration="none" x="861" y="810.5">-conSett: ConnectionSettings</text></g></g><g transform="translate(-574,-598) scale(1,1)"><g><path fill="none" stroke="none"/><text fill="#000000" stroke="none" font-family="Arial" font-size="13px" font-style="normal" font-weight="normal" text-decoration="none" x="861" y="825.5">-conn: MySqlConnection</text></g></g><g transform="translate(-574,-598) scale(1,1)"><g><path fill="none" stroke="none"/><text fill="#000000" stroke="none" font-family="Arial" font-size="13px" font-style="normal" font-weight="normal" text-decoration="none" x="861" y="840.5">-LstEquipement: List&lt;Equipement&gt;</text></g></g><g transform="translate(-574,-598) scale(1,1)"><g><path fill="none" stroke="none"/><text fill="#000000" stroke="none" font-family="Arial" font-size="13px" font-style="normal" font-weight="normal" text-decoration="none" x="861" y="855.5">-LstUtilisateurs: List&lt;Utilisateur&gt;</text></g></g><g transform="translate(-574,-598) scale(1,1)"><g><path fill="none" stroke="none"/><text fill="#000000" stroke="none" font-family="Arial" font-size="13px" font-style="normal" font-weight="normal" text-decoration="none" x="861" y="870.5">-cmd: MySqlCommand</text></g></g><g transform="translate(-574,-598) scale(1,1)"><g><path fill="none" stroke="none"/><text fill="#000000" stroke="none" font-family="Arial" font-size="13px" font-style="normal" font-weight="normal" text-decoration="none" x="861" y="885.5">-Collecte: MySqlDataReader</text></g></g><g transform="translate(-574,-598) scale(1,1)"><g><path fill="none" stroke="none"/><text fill="#000000" stroke="none" font-family="Arial" font-size="13px" font-style="normal" font-weight="normal" text-decoration="none" x="861" y="900.5">-ActiveSession: Session</text></g></g><g transform="translate(-574,-598) scale(1,1)"><g><path fill="none" stroke="none"/><text fill="#000000" stroke="none" font-family="Arial" font-size="13px" font-style="normal" font-weight="normal" text-decoration="none" x="861" y="923.5">+GestEquipement(userActive)</text></g></g><g transform="translate(-574,-598) scale(1,1)"><g><path fill="none" stroke="none"/><text fill="#000000" stroke="none" font-family="Arial" font-size="13px" font-style="normal" font-weight="normal" text-decoration="none" x="861" y="938.5">+FetchEquipements()</text></g></g><g transform="translate(-574,-598) scale(1,1)"><g><path fill="none" stroke="none"/><text fill="#000000" stroke="none" font-family="Arial" font-size="13px" font-style="normal" font-weight="normal" text-decoration="none" x="861" y="953.5">+FindEquipementById(id)</text></g></g><g transform="translate(-574,-598) scale(1,1)"><g><path fill="none" stroke="none"/><text fill="#000000" stroke="none" font-family="Arial" font-size="13px" font-style="normal" font-weight="normal" text-decoration="none" x="861" y="968.5">+NextidStatut()</text></g></g><g transform="translate(-574,-598) scale(1,1)"><g><path fill="none" stroke="none"/><text fill="#000000" stroke="none" font-family="Arial" font-size="13px" font-style="normal" font-weight="normal" text-decoration="none" x="861" y="983.5">+UpdateEquipement(id, nom, description, sn, type)</text></g></g><g transform="translate(-574,-598) scale(1,1)"><g><path fill="none" stroke="none"/><text fill="#000000" stroke="none" font-family="Arial" font-size="13px" font-style="normal" font-weight="normal" text-decoration="none" x="861" y="998.5">-QueryEquipement(req, conn)</text></g></g><g transform="translate(-574,-598) scale(1,1)"><g><path fill="none" stroke="none"/><text fill="#000000" stroke="none" font-family="Arial" font-size="13px" font-style="normal" font-weight="normal" text-decoration="none" x="861" y="1013.5">+QuickSearchE(recherche)</text></g></g><g transform="translate(-574,-598) scale(1,1)"><g><path fill="none" stroke="none"/><text fill="#000000" stroke="none" font-family="Arial" font-size="13px" font-style="normal" font-weight="normal" text-decoration="none" x="861" y="1028.5">+CreateEquipement(nom, description, type, sn)</text></g></g><g transform="translate(-574,-598) scale(1,1)"><g><path fill="none" stroke="none"/><text fill="#000000" stroke="none" font-family="Arial" font-size="13px" font-style="normal" font-weight="normal" text-decoration="none" x="861" y="1043.5">+DeleteEquipement(id, idStatut)</text></g></g><g transform="translate(-574,-598) scale(1,1)"><g><path fill="none" stroke="none"/><text fill="#000000" stroke="none" font-family="Arial" font-size="13px" font-style="normal" font-weight="normal" text-decoration="none" x="861" y="1058.5">+UpdateStatut(fk_statut, statut, commentaire, idEquipement)</text></g></g><g transform="translate(-574,-598) scale(1,1)"><g><path fill="none" stroke="none"/><text fill="#000000" stroke="none" font-family="Arial" font-size="13px" font-style="normal" font-weight="normal" text-decoration="none" x="861" y="1073.5">+RecordAction(idEquipement, modif)</text></g></g><g transform="translate(-574,-598) scale(1,1)"><g><path fill="none" stroke="none"/><text fill="#000000" stroke="none" font-family="Arial" font-size="13px" font-style="normal" font-weight="normal" text-decoration="none" x="861" y="1088.5">+ListAgirEquipement(idEquipement)</text></g></g><g transform="translate(-574,-598) scale(1,1)"><rect fill="#C0C0C0" stroke="none" x="655" y="911" width="137.97802734375" height="190" opacity="0.2"/></g><g transform="translate(-574,-598) scale(1,1)"><rect fill="#ffffff" stroke="none" x="648" y="904" width="137.97802734375" height="190"/></g><g transform="translate(-574,-598) scale(1,1)"><path fill="none" stroke="#000000" d="M 648 904 L 785.97802734375 904 L 785.97802734375 1094 L 648 1094 L 648 904 Z Z" stroke-miterlimit="10"/></g><g transform="translate(-574,-598) scale(1,1)"><path fill="none" stroke="#000000" d="M 648 929 L 785.97802734375 929" stroke-miterlimit="10"/></g><g transform="translate(-574,-598) scale(1,1)"><path fill="none" stroke="#000000" d="M 648 1072 L 785.97802734375 1072" stroke-miterlimit="10"/></g><g transform="translate(-574,-598) scale(1,1)"><g><path fill="none" stroke="none"/><text fill="#000000" stroke="none" font-family="Arial" font-size="13px" font-style="normal" font-weight="bold" text-decoration="none" x="682.299072265625" y="923.5">Equipement</text></g></g><g transform="translate(-574,-598) scale(1,1)"><g><path fill="none" stroke="none"/><text fill="#000000" stroke="none" font-family="Arial" font-size="13px" font-style="normal" font-weight="normal" text-decoration="none" x="653" y="946.5">+idEquipement: int</text></g></g><g transform="translate(-574,-598) scale(1,1)"><g><path fill="none" stroke="none"/><text fill="#000000" stroke="none" font-family="Arial" font-size="13px" font-style="normal" font-weight="normal" text-decoration="none" x="653" y="961.5">+serial_number: string</text></g></g><g transform="translate(-574,-598) scale(1,1)"><g><path fill="none" stroke="none"/><text fill="#000000" stroke="none" font-family="Arial" font-size="13px" font-style="normal" font-weight="normal" text-decoration="none" x="653" y="976.5">+Nom: string</text></g></g><g transform="translate(-574,-598) scale(1,1)"><g><path fill="none" stroke="none"/><text fill="#000000" stroke="none" font-family="Arial" font-size="13px" font-style="normal" font-weight="normal" text-decoration="none" x="653" y="991.5">+Description: string</text></g></g><g transform="translate(-574,-598) scale(1,1)"><g><path fill="none" stroke="none"/><text fill="#000000" stroke="none" font-family="Arial" font-size="13px" font-style="normal" font-weight="normal" text-decoration="none" x="653" y="1006.5">+Type: string</text></g></g><g transform="translate(-574,-598) scale(1,1)"><g><path fill="none" stroke="none"/><text fill="#000000" stroke="none" font-family="Arial" font-size="13px" font-style="normal" font-weight="normal" text-decoration="none" x="653" y="1021.5">+fk_statut: int</text></g></g><g transform="translate(-574,-598) scale(1,1)"><g><path fill="none" stroke="none"/><text fill="#000000" stroke="none" font-family="Arial" font-size="13px" font-style="normal" font-weight="normal" text-decoration="none" x="653" y="1036.5">+commentaire: string</text></g></g><g transform="translate(-574,-598) scale(1,1)"><g><path fill="none" stroke="none"/><text fill="#000000" stroke="none" font-family="Arial" font-size="13px" font-style="normal" font-weight="normal" text-decoration="none" x="653" y="1051.5">+statut: string</text></g></g><g transform="translate(-574,-598) scale(1,1)"><g><path fill="none" stroke="none"/><text fill="#000000" stroke="none" font-family="Arial" font-size="13px" font-style="normal" font-weight="normal" text-decoration="none" x="653" y="1066.5">+Time: DateTime</text></g></g><g transform="translate(-574,-598) scale(1,1)"><g><path fill="none" stroke="none"/><text fill="#000000" stroke="none" font-family="Arial" font-size="13px" font-style="normal" font-weight="normal" text-decoration="none" x="653" y="1089.5">+Equipement()</text></g></g><g transform="translate(-574,-598) scale(1,1)"><rect fill="#C0C0C0" stroke="none" x="591" y="1143" width="152" height="205" opacity="0.2"/></g><g transform="translate(-574,-598) scale(1,1)"><rect fill="#ffffff" stroke="none" x="584" y="1136" width="152" height="205"/></g><g transform="translate(-574,-598) scale(1,1)"><path fill="none" stroke="#000000" d="M 584 1136 L 736 1136 L 736 1341 L 584 1341 L 584 1136 Z Z" stroke-miterlimit="10"/></g><g transform="translate(-574,-598) scale(1,1)"><path fill="none" stroke="#000000" d="M 584 1161 L 736 1161" stroke-miterlimit="10"/></g><g transform="translate(-574,-598) scale(1,1)"><path fill="none" stroke="#000000" d="M 584 1319 L 736 1319" stroke-miterlimit="10"/></g><g transform="translate(-574,-598) scale(1,1)"><g><path fill="none" stroke="none"/><text fill="#000000" stroke="none" font-family="Arial" font-size="13px" font-style="normal" font-weight="bold" text-decoration="none" x="631.102294921875" y="1155.5">Utilisateur</text></g></g><g transform="translate(-574,-598) scale(1,1)"><g><path fill="none" stroke="none"/><text fill="#000000" stroke="none" font-family="Arial" font-size="13px" font-style="normal" font-weight="normal" text-decoration="none" x="589" y="1178.5">+Identifiant: int</text></g></g><g transform="translate(-574,-598) scale(1,1)"><g><path fill="none" stroke="none"/><text fill="#000000" stroke="none" font-family="Arial" font-size="13px" font-style="normal" font-weight="normal" text-decoration="none" x="589" y="1193.5">+password: string</text></g></g><g transform="translate(-574,-598) scale(1,1)"><g><path fill="none" stroke="none"/><text fill="#000000" stroke="none" font-family="Arial" font-size="13px" font-style="normal" font-weight="normal" text-decoration="none" x="589" y="1208.5">+prenom: string</text></g></g><g transform="translate(-574,-598) scale(1,1)"><g><path fill="none" stroke="none"/><text fill="#000000" stroke="none" font-family="Arial" font-size="13px" font-style="normal" font-weight="normal" text-decoration="none" x="589" y="1223.5">+nom: string</text></g></g><g transform="translate(-574,-598) scale(1,1)"><g><path fill="none" stroke="none"/><text fill="#000000" stroke="none" font-family="Arial" font-size="13px" font-style="normal" font-weight="normal" text-decoration="none" x="589" y="1238.5">+adresse_mail: string</text></g></g><g transform="translate(-574,-598) scale(1,1)"><g><path fill="none" stroke="none"/><text fill="#000000" stroke="none" font-family="Arial" font-size="13px" font-style="normal" font-weight="normal" text-decoration="none" x="589" y="1253.5">+fonction: string</text></g></g><g transform="translate(-574,-598) scale(1,1)"><g><path fill="none" stroke="none"/><text fill="#000000" stroke="none" font-family="Arial" font-size="13px" font-style="normal" font-weight="normal" text-decoration="none" x="589" y="1268.5">+fk_acces: int</text></g></g><g transform="translate(-574,-598) scale(1,1)"><g><path fill="none" stroke="none"/><text fill="#000000" stroke="none" font-family="Arial" font-size="13px" font-style="normal" font-weight="normal" text-decoration="none" x="589" y="1283.5">+gest_consultation: char</text></g></g><g transform="translate(-574,-598) scale(1,1)"><g><path fill="none" stroke="none"/><text fill="#000000" stroke="none" font-family="Arial" font-size="13px" font-style="normal" font-weight="normal" text-decoration="none" x="589" y="1298.5">+gest_user: char</text></g></g><g transform="translate(-574,-598) scale(1,1)"><g><path fill="none" stroke="none"/><text fill="#000000" stroke="none" font-family="Arial" font-size="13px" font-style="normal" font-weight="normal" text-decoration="none" x="589" y="1313.5">+gest_statut: char</text></g></g><g transform="translate(-574,-598) scale(1,1)"><g><path fill="none" stroke="none"/><text fill="#000000" stroke="none" font-family="Arial" font-size="13px" font-style="normal" font-weight="normal" text-decoration="none" x="589" y="1336.5">+Utilisateur()</text></g></g><g transform="translate(-574,-598) scale(1,1)"><rect fill="#C0C0C0" stroke="none" x="687" y="719" width="136" height="160" opacity="0.2"/></g><g transform="translate(-574,-598) scale(1,1)"><rect fill="#ffffff" stroke="none" x="680" y="712" width="136" height="160"/></g><g transform="translate(-574,-598) scale(1,1)"><path fill="none" stroke="#000000" d="M 680 712 L 816 712 L 816 872 L 680 872 L 680 712 Z Z" stroke-miterlimit="10"/></g><g transform="translate(-574,-598) scale(1,1)"><path fill="none" stroke="#000000" d="M 680 737 L 816 737" stroke-miterlimit="10"/></g><g transform="translate(-574,-598) scale(1,1)"><path fill="none" stroke="#000000" d="M 680 850 L 816 850" stroke-miterlimit="10"/></g><g transform="translate(-574,-598) scale(1,1)"><g><path fill="none" stroke="none"/><text fill="#000000" stroke="none" font-family="Arial" font-size="13px" font-style="normal" font-weight="bold" text-decoration="none" x="736.44091796875" y="731.5">Agir</text></g></g><g transform="translate(-574,-598) scale(1,1)"><g><path fill="none" stroke="none"/><text fill="#000000" stroke="none" font-family="Arial" font-size="13px" font-style="normal" font-weight="normal" text-decoration="none" x="685" y="754.5">+IdAgir: int</text></g></g><g transform="translate(-574,-598) scale(1,1)"><g><path fill="none" stroke="none"/><text fill="#000000" stroke="none" font-family="Arial" font-size="13px" font-style="normal" font-weight="normal" text-decoration="none" x="685" y="769.5">+Action: string</text></g></g><g transform="translate(-574,-598) scale(1,1)"><g><path fill="none" stroke="none"/><text fill="#000000" stroke="none" font-family="Arial" font-size="13px" font-style="normal" font-weight="normal" text-decoration="none" x="685" y="784.5">+IdEquipement: int</text></g></g><g transform="translate(-574,-598) scale(1,1)"><g><path fill="none" stroke="none"/><text fill="#000000" stroke="none" font-family="Arial" font-size="13px" font-style="normal" font-weight="normal" text-decoration="none" x="685" y="799.5">+IdUtilisateur: int</text></g></g><g transform="translate(-574,-598) scale(1,1)"><g><path fill="none" stroke="none"/><text fill="#000000" stroke="none" font-family="Arial" font-size="13px" font-style="normal" font-weight="normal" text-decoration="none" x="685" y="814.5">+nom: string</text></g></g><g transform="translate(-574,-598) scale(1,1)"><g><path fill="none" stroke="none"/><text fill="#000000" stroke="none" font-family="Arial" font-size="13px" font-style="normal" font-weight="normal" text-decoration="none" x="685" y="829.5">+sn: string</text></g></g><g transform="translate(-574,-598) scale(1,1)"><g><path fill="none" stroke="none"/><text fill="#000000" stroke="none" font-family="Arial" font-size="13px" font-style="normal" font-weight="normal" text-decoration="none" x="685" y="844.5">+horaire: DateTime</text></g></g><g transform="translate(-574,-598) scale(1,1)"><g><path fill="none" stroke="none"/><text fill="#000000" stroke="none" font-family="Arial" font-size="13px" font-style="normal" font-weight="normal" text-decoration="none" x="685" y="867.5">+Agir()</text></g></g><g transform="translate(-574,-598) scale(1,1)"><rect fill="#C0C0C0" stroke="none" x="919" y="615" width="211.34423828125" height="145" opacity="0.2"/></g><g transform="translate(-574,-598) scale(1,1)"><rect fill="#ffffff" stroke="none" x="912" y="608" width="211.34423828125" height="145"/></g><g transform="translate(-574,-598) scale(1,1)"><path fill="none" stroke="#000000" d="M 912 608 L 1123.34423828125 608 L 1123.34423828125 753 L 912 753 L 912 608 Z Z" stroke-miterlimit="10"/></g><g transform="translate(-574,-598) scale(1,1)"><path fill="none" stroke="#000000" d="M 912 633 L 1123.34423828125 633" stroke-miterlimit="10"/></g><g transform="translate(-574,-598) scale(1,1)"><path fill="none" stroke="#000000" d="M 912 731 L 1123.34423828125 731" stroke-miterlimit="10"/></g><g transform="translate(-574,-598) scale(1,1)"><g><path fill="none" stroke="none"/><text fill="#000000" stroke="none" font-family="Arial" font-size="13px" font-style="normal" font-weight="bold" text-decoration="none" x="986.593994140625" y="627.5">Connexion</text></g></g><g transform="translate(-574,-598) scale(1,1)"><g><path fill="none" stroke="none"/><text fill="#000000" stroke="none" font-family="Arial" font-size="13px" font-style="normal" font-weight="normal" text-decoration="none" x="917" y="650.5">-conn: MySqlConnection</text></g></g><g transform="translate(-574,-598) scale(1,1)"><g><path fill="none" stroke="none"/><text fill="#000000" stroke="none" font-family="Arial" font-size="13px" font-style="normal" font-weight="normal" text-decoration="none" x="917" y="665.5">-Reader: MySqlReader</text></g></g><g transform="translate(-574,-598) scale(1,1)"><g><path fill="none" stroke="none"/><text fill="#000000" stroke="none" font-family="Arial" font-size="13px" font-style="normal" font-weight="normal" text-decoration="none" x="917" y="680.5">-cmd: MySqlCommand</text></g></g><g transform="translate(-574,-598) scale(1,1)"><g><path fill="none" stroke="none"/><text fill="#000000" stroke="none" font-family="Arial" font-size="13px" font-style="normal" font-weight="normal" text-decoration="none" x="917" y="695.5">-lstUsers: List&lt;Utilisateur&gt;</text></g></g><g transform="translate(-574,-598) scale(1,1)"><g><path fill="none" stroke="none"/><text fill="#000000" stroke="none" font-family="Arial" font-size="13px" font-style="normal" font-weight="normal" text-decoration="none" x="917" y="710.5">-ConnSettings: ConnectionSettings</text></g></g><g transform="translate(-574,-598) scale(1,1)"><g><path fill="none" stroke="none"/><text fill="#000000" stroke="none" font-family="Arial" font-size="13px" font-style="normal" font-weight="normal" text-decoration="none" x="917" y="725.5">-userSession: Session</text></g></g><g transform="translate(-574,-598) scale(1,1)"><g><path fill="none" stroke="none"/><text fill="#000000" stroke="none" font-family="Arial" font-size="13px" font-style="normal" font-weight="normal" text-decoration="none" x="917" y="748.5">+Connect(id, mdp)</text></g></g><g transform="translate(-574,-598) scale(1,1)"><rect fill="#C0C0C0" stroke="none" x="1343" y="639" width="176" height="130" opacity="0.2"/></g><g transform="translate(-574,-598) scale(1,1)"><rect fill="#ffffff" stroke="none" x="1336" y="632" width="176" height="130"/></g><g transform="translate(-574,-598) scale(1,1)"><path fill="none" stroke="#000000" d="M 1336 632 L 1512 632 L 1512 762 L 1336 762 L 1336 632 Z Z" stroke-miterlimit="10"/></g><g transform="translate(-574,-598) scale(1,1)"><path fill="none" stroke="#000000" d="M 1336 657 L 1512 657" stroke-miterlimit="10"/></g><g transform="translate(-574,-598) scale(1,1)"><path fill="none" stroke="#000000" d="M 1336 695 L 1512 695" stroke-miterlimit="10"/></g><g transform="translate(-574,-598) scale(1,1)"><g><path fill="none" stroke="none"/><text fill="#000000" stroke="none" font-family="Arial" font-size="13px" font-style="normal" font-weight="bold" text-decoration="none" x="1378.484130859375" y="651.5">HomeController</text></g></g><g transform="translate(-574,-598) scale(1,1)"><g><path fill="none" stroke="none"/><text fill="#000000" stroke="none" font-family="Arial" font-size="13px" font-style="normal" font-weight="normal" text-decoration="none" x="1341" y="674.5">-UserSession: Session</text></g></g><g transform="translate(-574,-598) scale(1,1)"><g><path fill="none" stroke="none"/><text fill="#000000" stroke="none" font-family="Arial" font-size="13px" font-style="normal" font-weight="normal" text-decoration="none" x="1341" y="689.5">-Log: Connexion</text></g></g><g transform="translate(-574,-598) scale(1,1)"><g><path fill="none" stroke="none"/><text fill="#000000" stroke="none" font-family="Arial" font-size="13px" font-style="normal" font-weight="normal" text-decoration="none" x="1341" y="712.5">+Index()</text></g></g><g transform="translate(-574,-598) scale(1,1)"><g><path fill="none" stroke="none"/><text fill="#000000" stroke="none" font-family="Arial" font-size="13px" font-style="normal" font-weight="normal" text-decoration="none" x="1341" y="727.5">+Connect(id, mdp)</text></g></g><g transform="translate(-574,-598) scale(1,1)"><g><path fill="none" stroke="none"/><text fill="#000000" stroke="none" font-family="Arial" font-size="13px" font-style="normal" font-weight="normal" text-decoration="none" x="1341" y="742.5">+Infos()</text></g></g><g transform="translate(-574,-598) scale(1,1)"><g><path fill="none" stroke="none"/><text fill="#000000" stroke="none" font-family="Arial" font-size="13px" font-style="normal" font-weight="normal" text-decoration="none" x="1341" y="757.5">+RefreshSession()</text></g></g><g transform="translate(-574,-598) scale(1,1)"><rect fill="#C0C0C0" stroke="none" x="1343" y="1103" width="520.20849609375" height="310" opacity="0.2"/></g><g transform="translate(-574,-598) scale(1,1)"><rect fill="#ffffff" stroke="none" x="1336" y="1096" width="520.20849609375" height="310"/></g><g transform="translate(-574,-598) scale(1,1)"><path fill="none" stroke="#000000" d="M 1336 1096 L 1856.20849609375 1096 L 1856.20849609375 1406 L 1336 1406 L 1336 1096 Z Z" stroke-miterlimit="10"/></g><g transform="translate(-574,-598) scale(1,1)"><path fill="none" stroke="#000000" d="M 1336 1121 L 1856.20849609375 1121" stroke-miterlimit="10"/></g><g transform="translate(-574,-598) scale(1,1)"><path fill="none" stroke="#000000" d="M 1336 1174 L 1856.20849609375 1174" stroke-miterlimit="10"/></g><g transform="translate(-574,-598) scale(1,1)"><g><path fill="none" stroke="none"/><text fill="#000000" stroke="none" font-family="Arial" font-size="13px" font-style="normal" font-weight="bold" text-decoration="none" x="1535.779296875" y="1115.5">UtilisateursController</text></g></g><g transform="translate(-574,-598) scale(1,1)"><g><path fill="none" stroke="none"/><text fill="#000000" stroke="none" font-family="Arial" font-size="13px" font-style="normal" font-weight="normal" text-decoration="none" x="1341" y="1138.5">+UserSession: Session</text></g></g><g transform="translate(-574,-598) scale(1,1)"><g><path fill="none" stroke="none"/><text fill="#000000" stroke="none" font-family="Arial" font-size="13px" font-style="normal" font-weight="normal" text-decoration="none" x="1341" y="1153.5">-right: string</text></g></g><g transform="translate(-574,-598) scale(1,1)"><g><path fill="none" stroke="none"/><text fill="#000000" stroke="none" font-family="Arial" font-size="13px" font-style="normal" font-weight="normal" text-decoration="none" x="1341" y="1168.5">-dbU: GestUtilisateur</text></g></g><g transform="translate(-574,-598) scale(1,1)"><g><path fill="none" stroke="none"/><text fill="#000000" stroke="none" font-family="Arial" font-size="13px" font-style="normal" font-weight="normal" text-decoration="none" x="1341" y="1191.5">+Index()</text></g></g><g transform="translate(-574,-598) scale(1,1)"><g><path fill="none" stroke="none"/><text fill="#000000" stroke="none" font-family="Arial" font-size="13px" font-style="normal" font-weight="normal" text-decoration="none" x="1341" y="1206.5">+Recherche_Rapide(recherche)</text></g></g><g transform="translate(-574,-598) scale(1,1)"><g><path fill="none" stroke="none"/><text fill="#000000" stroke="none" font-family="Arial" font-size="13px" font-style="normal" font-weight="normal" text-decoration="none" x="1341" y="1221.5">+Create()</text></g></g><g transform="translate(-574,-598) scale(1,1)"><g><path fill="none" stroke="none"/><text fill="#000000" stroke="none" font-family="Arial" font-size="13px" font-style="normal" font-weight="normal" text-decoration="none" x="1341" y="1236.5">+NoAccess()</text></g></g><g transform="translate(-574,-598) scale(1,1)"><g><path fill="none" stroke="none"/><text fill="#000000" stroke="none" font-family="Arial" font-size="13px" font-style="normal" font-weight="normal" text-decoration="none" x="1341" y="1251.5">+CreateNewUser(pwd, nom, mail, fonction, cons, user, statut)</text></g></g><g transform="translate(-574,-598) scale(1,1)"><g><path fill="none" stroke="none"/><text fill="#000000" stroke="none" font-family="Arial" font-size="13px" font-style="normal" font-weight="normal" text-decoration="none" x="1341" y="1266.5">+Disconnect()</text></g></g><g transform="translate(-574,-598) scale(1,1)"><g><path fill="none" stroke="none"/><text fill="#000000" stroke="none" font-family="Arial" font-size="13px" font-style="normal" font-weight="normal" text-decoration="none" x="1341" y="1281.5">+Edit(id)</text></g></g><g transform="translate(-574,-598) scale(1,1)"><g><path fill="none" stroke="none"/><text fill="#000000" stroke="none" font-family="Arial" font-size="13px" font-style="normal" font-weight="normal" text-decoration="none" x="1341" y="1296.5">+CheckRights(type)</text></g></g><g transform="translate(-574,-598) scale(1,1)"><g><path fill="none" stroke="none"/><text fill="#000000" stroke="none" font-family="Arial" font-size="13px" font-style="normal" font-weight="normal" text-decoration="none" x="1341" y="1311.5">+Delete(id)</text></g></g><g transform="translate(-574,-598) scale(1,1)"><g><path fill="none" stroke="none"/><text fill="#000000" stroke="none" font-family="Arial" font-size="13px" font-style="normal" font-weight="normal" text-decoration="none" x="1341" y="1326.5">+DeleteUtilisateurById(identifiant, access)</text></g></g><g transform="translate(-574,-598) scale(1,1)"><g><path fill="none" stroke="none"/><text fill="#000000" stroke="none" font-family="Arial" font-size="13px" font-style="normal" font-weight="normal" text-decoration="none" x="1341" y="1341.5">+Result()</text></g></g><g transform="translate(-574,-598) scale(1,1)"><g><path fill="none" stroke="none"/><text fill="#000000" stroke="none" font-family="Arial" font-size="13px" font-style="normal" font-weight="normal" text-decoration="none" x="1341" y="1356.5">+UpdateUser(identifiant, fk_access, pwd, prenom, nom, mail, fonction, cons, user, statut)</text></g></g><g transform="translate(-574,-598) scale(1,1)"><g><path fill="none" stroke="none"/><text fill="#000000" stroke="none" font-family="Arial" font-size="13px" font-style="normal" font-weight="normal" text-decoration="none" x="1341" y="1371.5">+UpdateAccess(id, cons, user, statut)</text></g></g><g transform="translate(-574,-598) scale(1,1)"><g><path fill="none" stroke="none"/><text fill="#000000" stroke="none" font-family="Arial" font-size="13px" font-style="normal" font-weight="normal" text-decoration="none" x="1341" y="1386.5">+DetailsUser(id)</text></g></g><g transform="translate(-574,-598) scale(1,1)"><g><path fill="none" stroke="none"/><text fill="#000000" stroke="none" font-family="Arial" font-size="13px" font-style="normal" font-weight="normal" text-decoration="none" x="1341" y="1401.5">+RefreshSession()</text></g></g><g transform="translate(-574,-598) scale(1,1)"><rect fill="#C0C0C0" stroke="none" x="1343" y="799" width="359.0986328125" height="280" opacity="0.2"/></g><g transform="translate(-574,-598) scale(1,1)"><rect fill="#ffffff" stroke="none" x="1336" y="792" width="359.0986328125" height="280"/></g><g transform="translate(-574,-598) scale(1,1)"><path fill="none" stroke="#000000" d="M 1336 792 L 1695.0986328125 792 L 1695.0986328125 1072 L 1336 1072 L 1336 792 Z Z" stroke-miterlimit="10"/></g><g transform="translate(-574,-598) scale(1,1)"><path fill="none" stroke="#000000" d="M 1336 817 L 1695.0986328125 817" stroke-miterlimit="10"/></g><g transform="translate(-574,-598) scale(1,1)"><path fill="none" stroke="#000000" d="M 1336 855 L 1695.0986328125 855" stroke-miterlimit="10"/></g><g transform="translate(-574,-598) scale(1,1)"><g><path fill="none" stroke="none"/><text fill="#000000" stroke="none" font-family="Arial" font-size="13px" font-style="normal" font-weight="bold" text-decoration="none" x="1449.43212890625" y="811.5">EquipementsController</text></g></g><g transform="translate(-574,-598) scale(1,1)"><g><path fill="none" stroke="none"/><text fill="#000000" stroke="none" font-family="Arial" font-size="13px" font-style="normal" font-weight="normal" text-decoration="none" x="1341" y="834.5">-UserSession: Session</text></g></g><g transform="translate(-574,-598) scale(1,1)"><g><path fill="none" stroke="none"/><text fill="#000000" stroke="none" font-family="Arial" font-size="13px" font-style="normal" font-weight="normal" text-decoration="none" x="1341" y="849.5">-dbE: GestEquipement</text></g></g><g transform="translate(-574,-598) scale(1,1)"><g><path fill="none" stroke="none"/><text fill="#000000" stroke="none" font-family="Arial" font-size="13px" font-style="normal" font-weight="normal" text-decoration="none" x="1341" y="872.5">+Index()</text></g></g><g transform="translate(-574,-598) scale(1,1)"><g><path fill="none" stroke="none"/><text fill="#000000" stroke="none" font-family="Arial" font-size="13px" font-style="normal" font-weight="normal" text-decoration="none" x="1341" y="887.5">+Create()</text></g></g><g transform="translate(-574,-598) scale(1,1)"><g><path fill="none" stroke="none"/><text fill="#000000" stroke="none" font-family="Arial" font-size="13px" font-style="normal" font-weight="normal" text-decoration="none" x="1341" y="902.5">+Delete(id)</text></g></g><g transform="translate(-574,-598) scale(1,1)"><g><path fill="none" stroke="none"/><text fill="#000000" stroke="none" font-family="Arial" font-size="13px" font-style="normal" font-weight="normal" text-decoration="none" x="1341" y="917.5">+Recherche_rapide(recherche)</text></g></g><g transform="translate(-574,-598) scale(1,1)"><g><path fill="none" stroke="none"/><text fill="#000000" stroke="none" font-family="Arial" font-size="13px" font-style="normal" font-weight="normal" text-decoration="none" x="1341" y="932.5">+CreateNewEquipement(nom, description, type, sn)</text></g></g><g transform="translate(-574,-598) scale(1,1)"><g><path fill="none" stroke="none"/><text fill="#000000" stroke="none" font-family="Arial" font-size="13px" font-style="normal" font-weight="normal" text-decoration="none" x="1341" y="947.5">+Edit(id)</text></g></g><g transform="translate(-574,-598) scale(1,1)"><g><path fill="none" stroke="none"/><text fill="#000000" stroke="none" font-family="Arial" font-size="13px" font-style="normal" font-weight="normal" text-decoration="none" x="1341" y="962.5">+UpdateEquip(id, nom, description, sn, type)</text></g></g><g transform="translate(-574,-598) scale(1,1)"><g><path fill="none" stroke="none"/><text fill="#000000" stroke="none" font-family="Arial" font-size="13px" font-style="normal" font-weight="normal" text-decoration="none" x="1341" y="977.5">+DeleteEquipementById(id, fkstatut)</text></g></g><g transform="translate(-574,-598) scale(1,1)"><g><path fill="none" stroke="none"/><text fill="#000000" stroke="none" font-family="Arial" font-size="13px" font-style="normal" font-weight="normal" text-decoration="none" x="1341" y="992.5">+Disconnect()</text></g></g><g transform="translate(-574,-598) scale(1,1)"><g><path fill="none" stroke="none"/><text fill="#000000" stroke="none" font-family="Arial" font-size="13px" font-style="normal" font-weight="normal" text-decoration="none" x="1341" y="1007.5">+ChangeStatus(id)</text></g></g><g transform="translate(-574,-598) scale(1,1)"><g><path fill="none" stroke="none"/><text fill="#000000" stroke="none" font-family="Arial" font-size="13px" font-style="normal" font-weight="normal" text-decoration="none" x="1341" y="1022.5">+UpdateStatus(idStatus, statut, commentaire, idEquipement)</text></g></g><g transform="translate(-574,-598) scale(1,1)"><g><path fill="none" stroke="none"/><text fill="#000000" stroke="none" font-family="Arial" font-size="13px" font-style="normal" font-weight="normal" text-decoration="none" x="1341" y="1037.5">+Result(result)</text></g></g><g transform="translate(-574,-598) scale(1,1)"><g><path fill="none" stroke="none"/><text fill="#000000" stroke="none" font-family="Arial" font-size="13px" font-style="normal" font-weight="normal" text-decoration="none" x="1341" y="1052.5">+Historique(id)</text></g></g><g transform="translate(-574,-598) scale(1,1)"><g><path fill="none" stroke="none"/><text fill="#000000" stroke="none" font-family="Arial" font-size="13px" font-style="normal" font-weight="normal" text-decoration="none" x="1341" y="1067.5">+NoAccess()</text></g></g><g transform="translate(-574,-598) scale(1,1)"><rect fill="#C0C0C0" stroke="none" x="1639" y="647" width="72.2353515625" height="72" opacity="0.2"/></g><g transform="translate(-574,-598) scale(1,1)"><rect fill="#ffffff" stroke="none" x="1632" y="640" width="72.2353515625" height="72"/></g><g transform="translate(-574,-598) scale(1,1)"><path fill="none" stroke="#000000" d="M 1632 640 L 1704.2353515625 640 L 1704.2353515625 712 L 1632 712 L 1632 640 Z Z" stroke-miterlimit="10"/></g><g transform="translate(-574,-598) scale(1,1)"><path fill="none" stroke="#000000" d="M 1632 665 L 1704.2353515625 665" stroke-miterlimit="10"/></g><g transform="translate(-574,-598) scale(1,1)"><path fill="none" stroke="#000000" d="M 1632 703 L 1704.2353515625 703" stroke-miterlimit="10"/></g><g transform="translate(-574,-598) scale(1,1)"><g><path fill="none" stroke="none"/><text fill="#000000" stroke="none" font-family="Arial" font-size="13px" font-style="normal" font-weight="bold" text-decoration="none" x="1650.779052734375" y="659.5">Views</text></g></g><g transform="translate(-574,-598) scale(1,1)"><g><path fill="none" stroke="none"/><text fill="#000000" stroke="none" font-family="Arial" font-size="13px" font-style="normal" font-weight="normal" text-decoration="none" x="1637" y="682.5">+Index</text></g></g><g transform="translate(-574,-598) scale(1,1)"><g><path fill="none" stroke="none"/><text fill="#000000" stroke="none" font-family="Arial" font-size="13px" font-style="normal" font-weight="normal" text-decoration="none" x="1637" y="697.5">+Infos</text></g></g><g transform="translate(-574,-598) scale(1,1)"><rect fill="#C0C0C0" stroke="none" x="1783" y="871" width="75.1171875" height="162" opacity="0.2"/></g><g transform="translate(-574,-598) scale(1,1)"><rect fill="#ffffff" stroke="none" x="1776" y="864" width="75.1171875" height="162"/></g><g transform="translate(-574,-598) scale(1,1)"><path fill="none" stroke="#000000" d="M 1776 864 L 1851.1171875 864 L 1851.1171875 1026 L 1776 1026 L 1776 864 Z Z" stroke-miterlimit="10"/></g><g transform="translate(-574,-598) scale(1,1)"><path fill="none" stroke="#000000" d="M 1776 889 L 1851.1171875 889" stroke-miterlimit="10"/></g><g transform="translate(-574,-598) scale(1,1)"><path fill="none" stroke="#000000" d="M 1776 1017 L 1851.1171875 1017" stroke-miterlimit="10"/></g><g transform="translate(-574,-598) scale(1,1)"><g><path fill="none" stroke="none"/><text fill="#000000" stroke="none" font-family="Arial" font-size="13px" font-style="normal" font-weight="bold" text-decoration="none" x="1796.219970703125" y="883.5">Views</text></g></g><g transform="translate(-574,-598) scale(1,1)"><g><path fill="none" stroke="none"/><text fill="#000000" stroke="none" font-family="Arial" font-size="13px" font-style="normal" font-weight="normal" text-decoration="none" x="1781" y="906.5">+index</text></g></g><g transform="translate(-574,-598) scale(1,1)"><g><path fill="none" stroke="none"/><text fill="#000000" stroke="none" font-family="Arial" font-size="13px" font-style="normal" font-weight="normal" text-decoration="none" x="1781" y="921.5">+Create</text></g></g><g transform="translate(-574,-598) scale(1,1)"><g><path fill="none" stroke="none"/><text fill="#000000" stroke="none" font-family="Arial" font-size="13px" font-style="normal" font-weight="normal" text-decoration="none" x="1781" y="936.5">+Delete</text></g></g><g transform="translate(-574,-598) scale(1,1)"><g><path fill="none" stroke="none"/><text fill="#000000" stroke="none" font-family="Arial" font-size="13px" font-style="normal" font-weight="normal" text-decoration="none" x="1781" y="951.5">+Search</text></g></g><g transform="translate(-574,-598) scale(1,1)"><g><path fill="none" stroke="none"/><text fill="#000000" stroke="none" font-family="Arial" font-size="13px" font-style="normal" font-weight="normal" text-decoration="none" x="1781" y="966.5">+Update</text></g></g><g transform="translate(-574,-598) scale(1,1)"><g><path fill="none" stroke="none"/><text fill="#000000" stroke="none" font-family="Arial" font-size="13px" font-style="normal" font-weight="normal" text-decoration="none" x="1781" y="981.5">+Result</text></g></g><g transform="translate(-574,-598) scale(1,1)"><g><path fill="none" stroke="none"/><text fill="#000000" stroke="none" font-family="Arial" font-size="13px" font-style="normal" font-weight="normal" text-decoration="none" x="1781" y="996.5">+NoAccess</text></g></g><g transform="translate(-574,-598) scale(1,1)"><g><path fill="none" stroke="none"/><text fill="#000000" stroke="none" font-family="Arial" font-size="13px" font-style="normal" font-weight="normal" text-decoration="none" x="1781" y="1011.5">+Historique</text></g></g><g transform="translate(-574,-598) scale(1,1)"><rect fill="#C0C0C0" stroke="none" x="1903" y="1191" width="72.2353515625" height="147" opacity="0.2"/></g><g transform="translate(-574,-598) scale(1,1)"><rect fill="#ffffff" stroke="none" x="1896" y="1184" width="72.2353515625" height="147"/></g><g transform="translate(-574,-598) scale(1,1)"><path fill="none" stroke="#000000" d="M 1896 1184 L 1968.2353515625 1184 L 1968.2353515625 1331 L 1896 1331 L 1896 1184 Z Z" stroke-miterlimit="10"/></g><g transform="translate(-574,-598) scale(1,1)"><path fill="none" stroke="#000000" d="M 1896 1209 L 1968.2353515625 1209" stroke-miterlimit="10"/></g><g transform="translate(-574,-598) scale(1,1)"><path fill="none" stroke="#000000" d="M 1896 1322 L 1968.2353515625 1322" stroke-miterlimit="10"/></g><g transform="translate(-574,-598) scale(1,1)"><g><path fill="none" stroke="none"/><text fill="#000000" stroke="none" font-family="Arial" font-size="13px" font-style="normal" font-weight="bold" text-decoration="none" x="1914.779052734375" y="1203.5">Views</text></g></g><g transform="translate(-574,-598) scale(1,1)"><g><path fill="none" stroke="none"/><text fill="#000000" stroke="none" font-family="Arial" font-size="13px" font-style="normal" font-weight="normal" text-decoration="none" x="1901" y="1226.5">+Index</text></g></g><g transform="translate(-574,-598) scale(1,1)"><g><path fill="none" stroke="none"/><text fill="#000000" stroke="none" font-family="Arial" font-size="13px" font-style="normal" font-weight="normal" text-decoration="none" x="1901" y="1241.5">+Search</text></g></g><g transform="translate(-574,-598) scale(1,1)"><g><path fill="none" stroke="none"/><text fill="#000000" stroke="none" font-family="Arial" font-size="13px" font-style="normal" font-weight="normal" text-decoration="none" x="1901" y="1256.5">+Create</text></g></g><g transform="translate(-574,-598) scale(1,1)"><g><path fill="none" stroke="none"/><text fill="#000000" stroke="none" font-family="Arial" font-size="13px" font-style="normal" font-weight="normal" text-decoration="none" x="1901" y="1271.5">+Delete</text></g></g><g transform="translate(-574,-598) scale(1,1)"><g><path fill="none" stroke="none"/><text fill="#000000" stroke="none" font-family="Arial" font-size="13px" font-style="normal" font-weight="normal" text-decoration="none" x="1901" y="1286.5">+Edit</text></g></g><g transform="translate(-574,-598) scale(1,1)"><g><path fill="none" stroke="none"/><text fill="#000000" stroke="none" font-family="Arial" font-size="13px" font-style="normal" font-weight="normal" text-decoration="none" x="1901" y="1301.5">+Update</text></g></g><g transform="translate(-574,-598) scale(1,1)"><g><path fill="none" stroke="none"/><text fill="#000000" stroke="none" font-family="Arial" font-size="13px" font-style="normal" font-weight="normal" text-decoration="none" x="1901" y="1316.5">+Details</text></g></g><g transform="translate(-574,-598) scale(1,1)"><path fill="none" stroke="#000000" d="M 1336 1252 L 1297 1252" stroke-miterlimit="10"/></g><g transform="translate(-574,-598) scale(1,1)"><path fill="none" stroke="#000000" d="M 1215 931 L 1335 931" stroke-miterlimit="10"/></g><g transform="translate(-574,-598) scale(1,1)"><path fill="none" stroke="#000000" d="M 1123 680 L 1336 680" stroke-miterlimit="10"/></g><g transform="translate(-574,-598) scale(1,1)"><path fill="none" stroke="#000000" d="M 808 1232 L 736 1232" stroke-miterlimit="10"/></g><g transform="translate(-574,-598) scale(1,1)"><path fill="none" stroke="#000000" d="M 856 808 L 816 808" stroke-miterlimit="10"/></g><g transform="translate(-574,-598) scale(1,1)"><path fill="none" stroke="#000000" d="M 856 1016 L 786 1016" stroke-miterlimit="10"/></g><g transform="translate(-574,-598) scale(1,1)"><path fill="none" stroke="#000000" d="M 624 1136 L 624 680 L 912 680" stroke-miterlimit="10"/></g><g transform="translate(-574,-598) scale(1,1)"><path fill="none" stroke="#000000" d="M 1512 680 L 1632 680" stroke-miterlimit="10"/></g><g transform="translate(-574,-598) scale(1,1)"><path fill="none" stroke="#000000" d="M 1776 932 L 1695 932" stroke-miterlimit="10"/></g><g transform="translate(-574,-598) scale(1,1)"><path fill="none" stroke="#000000" d="M 1896 1280 L 1856 1280" stroke-miterlimit="10"/></g></g></svg>